<svg width="113" height="113" fill="none" xmlns="http://www.w3.org/2000/svg"><path d="M25.05 76.363a2.318 2.318 0 100 4.635 2.318 2.318 0 000-4.635zm78.791-5.738c2.859 0 5.186-2.277 5.186-5.076 0-2.799-2.327-5.076-5.186-5.076-2.86 0-5.187 2.277-5.187 5.076 0 2.799 2.328 5.076 5.187 5.076zm0-7.252c1.226 0 2.223.976 2.223 2.176 0 1.2-.997 2.175-2.223 2.175s-2.223-.975-2.223-2.175c0-1.2.997-2.176 2.223-2.176zM59.7 92.254a2.317 2.317 0 100-4.635 2.317 2.317 0 000 4.635zm38.14-81.951c-.79-.79-2.07-.79-2.86 0l-2.285 2.286-2.285-2.286a2.022 2.022 0 10-2.86 2.86l2.285 2.286-2.286 2.286a2.022 2.022 0 102.86 2.86l2.286-2.286 2.286 2.286c.395.395.912.593 1.43.593a2.022 2.022 0 001.43-3.453l-2.285-2.286 2.285-2.286c.79-.79.79-2.07 0-2.86zM28.03 36.416a2.207 2.207 0 100-4.414 2.207 2.207 0 000 4.414zM13.242 9.71c-3.894 0-7.062 3.17-7.062 7.063 0 3.894 3.168 7.063 7.062 7.063s7.063-3.169 7.063-7.063c0-3.893-3.169-7.062-7.063-7.062zm0 10.09a3.03 3.03 0 01-3.027-3.027 3.03 3.03 0 013.027-3.026 3.03 3.03 0 013.027 3.026 3.03 3.03 0 01-3.027 3.027z" fill="#EEBE67"/><mask id="a" fill="#fff"><path d="M94.89 93.707h-2.586V77.343a.862.862 0 00-1.568-.494L78.667 94.075a.86.86 0 00.706 1.355H90.58v2.584a.862.862 0 001.724 0V95.43h2.586a.862.862 0 100-1.723zm-4.31 0h-9.552l9.552-13.632v13.632z"/></mask><path d="M94.89 93.707h-2.586V77.343a.862.862 0 00-1.568-.494L78.667 94.075a.86.86 0 00.706 1.355H90.58v2.584a.862.862 0 001.724 0V95.43h2.586a.862.862 0 100-1.723zm-4.31 0h-9.552l9.552-13.632v13.632z" fill="#EEBE67"/><path d="M92.304 93.707h-5v5h5v-5zm0-16.364h5v-.004l-5 .004zm-.863-.861l-.003-5 .003 5zm-.705.367l-4.094-2.87 4.094 2.87zM78.667 94.075l-4.095-2.869-.001.002 4.096 2.867zm.213 1.2l2.863-4.1-2.863 4.1zm.493.155l-.003 5h.003v-5zm11.207 0h5v-5h-5v5zm1.724 0v-5h-5v5h5zm-1.724-1.723v5h5v-5h-5zm-9.552 0l-4.095-2.869-5.513 7.87h9.608v-5zm9.552-13.632h5v-15.85l-9.095 12.98 4.095 2.87zm4.31 8.632h-2.586v10h2.586v-10zm2.414 5V77.343h-10v16.364h10zm0-16.368a5.862 5.862 0 00-5.866-5.857l.007 10a4.138 4.138 0 01-4.14-4.136l10-.007zm-5.866-5.857a5.862 5.862 0 00-4.796 2.497l8.188 5.74a4.138 4.138 0 01-3.385 1.763l-.007-10zM86.64 73.98L74.572 91.206l8.19 5.738 12.069-17.226-8.19-5.738zM74.57 91.208a5.86 5.86 0 001.446 8.166l5.726-8.199a4.14 4.14 0 011.02 5.767l-8.192-5.734zm1.445 8.165a5.866 5.866 0 003.354 1.057l.006-10c.847 0 1.673.26 2.367.745l-5.727 8.198zm3.357 1.057H90.58v-10H79.373v10zm6.207-5v2.584h10V95.43h-10zm0 2.584a5.862 5.862 0 005.862 5.861v-10a4.138 4.138 0 014.138 4.139h-10zm5.862 5.861a5.862 5.862 0 005.862-5.861h-10a4.138 4.138 0 014.138-4.139v10zm5.862-5.861V95.43h-10v2.584h10zm-5 2.416h2.586v-10h-2.586v10zm2.586 0a5.862 5.862 0 005.862-5.862h-10a4.138 4.138 0 014.138-4.138v10zm5.862-5.862a5.861 5.861 0 00-5.862-5.86v10a4.138 4.138 0 01-4.138-4.14h10zm-10.172-5.86h-9.552v10h9.552v-10zm-5.457 7.868l9.552-13.632-8.19-5.739-9.552 13.633 8.19 5.738zm.457-16.501v13.632h10V80.075h-10z" fill="#EEBE67" mask="url(#a)"/><mask id="b" fill="#fff"><path d="M79.243 97.153H69.125L78.53 85.99a.896.896 0 00.06-.08c1.77-2.64 1.18-6.213-1.341-8.133a6.803 6.803 0 00-9.542 1.575 6.926 6.926 0 00-1.285 4.021c0 .476.383.861.855.861a.858.858 0 00.855-.86c0-2.855 2.295-5.168 5.127-5.169a5.1 5.1 0 012.991.97 4.274 4.274 0 01.94 5.74L66.627 97.457a.866.866 0 00.098 1.214c.155.131.35.204.553.204h11.965a.858.858 0 00.854-.861.858.858 0 00-.854-.861z"/></mask><path d="M79.243 97.153H69.125L78.53 85.99a.896.896 0 00.06-.08c1.77-2.64 1.18-6.213-1.341-8.133a6.803 6.803 0 00-9.542 1.575 6.926 6.926 0 00-1.285 4.021c0 .476.383.861.855.861a.858.858 0 00.855-.86c0-2.855 2.295-5.168 5.127-5.169a5.1 5.1 0 012.991.97 4.274 4.274 0 01.94 5.74L66.627 97.457a.866.866 0 00.098 1.214c.155.131.35.204.553.204h11.965a.858.858 0 00.854-.861.858.858 0 00-.854-.861z" fill="#EEBE67"/><path d="M69.125 97.153L65.3 93.93l-6.928 8.223h10.752v-5zM78.53 85.99l3.824 3.222.008-.01.008-.01-3.84-3.202zm.06-.08l-4.153-2.784-.005.007-.005.007 4.163 2.77zm-1.341-8.133l3.029-3.978-.048-.037-.05-.035-2.931 4.05zm-9.542 1.575l4.071 2.903-4.071-2.903zm-1.285 4.021h5-5zm1.71 0h5-5zm5.127-5.168v-5 5zm2.991.97l3.056-3.957-.061-.047-.063-.046-2.932 4.05zm.94 5.74l3.824 3.222.184-.218.157-.237-4.165-2.767zM66.627 97.457l-3.824-3.222 3.824 3.222zm.098 1.214l-3.25 3.799.001.001 3.25-3.8zm.553.204l-.003 5h.003v-5zm11.965-6.722H69.125v10h10.118v-10zm-6.295 8.222l9.407-11.163-7.647-6.444-9.407 11.162 7.647 6.445zm9.424-11.183c.133-.16.261-.33.382-.512l-8.326-5.54a4.24 4.24 0 01.263-.352l7.68 6.404zm.372-.497c3.237-4.827 2.17-11.367-2.465-14.896l-6.059 7.956c.41.312.521.919.218 1.37l8.306 5.57zm-2.562-14.968c-5.324-3.855-12.737-2.618-16.545 2.722l8.142 5.805a1.803 1.803 0 012.538-.427l5.865-8.1zm-16.545 2.722a11.926 11.926 0 00-2.214 6.925l10-.002c0-.404.127-.796.356-1.117l-8.142-5.806zm-2.214 6.924c0 3.2 2.585 5.861 5.855 5.861v-10a4.142 4.142 0 014.145 4.14h-10zm5.855 5.861c3.27 0 5.855-2.66 5.855-5.86h-10c0-2.25 1.82-4.14 4.145-4.14v10zm5.855-5.861a.19.19 0 01.013-.077.179.179 0 01.037-.055.136.136 0 01.042-.03.08.08 0 01.035-.006v-10c-5.63 0-10.128 4.59-10.127 10.169l10-.001zm.127-.168c.018 0 .038.005.06.02l5.863-8.1a10.101 10.101 0 00-5.924-1.92l.001 10zm-.065-.072a.726.726 0 01-.169-.984l8.33 5.533c2.684-4.04 1.803-9.49-2.049-12.464l-6.112 7.915zm.172-1.439L62.803 94.235l7.648 6.443 10.564-12.541-7.648-6.443zM62.802 94.236a5.865 5.865 0 00.674 8.234l6.5-7.6a4.134 4.134 0 01.475 5.807l-7.649-6.441zm.674 8.235a5.851 5.851 0 003.8 1.404l.005-10c.992 0 1.946.356 2.694.995l-6.499 7.601zm3.802 1.404h11.965v-10H67.278v10zm11.965 0c3.27 0 5.854-2.661 5.854-5.861h-10c0-2.25 1.82-4.139 4.146-4.139v10zm5.854-5.861c0-3.2-2.585-5.861-5.854-5.861v10a4.143 4.143 0 01-4.146-4.14h10z" fill="#EEBE67" mask="url(#b)"/><path d="M49.02 97.32a1.585 1.585 0 00-1.525-1.644c-20.684-.768-37.284-17.339-38.09-38.02h6.287a1.585 1.585 0 100-3.171H9.406c.793-20.645 17.348-37.199 37.993-37.992v4.7a1.585 1.585 0 003.17 0v-4.7c20.364.788 36.798 16.912 37.973 37.256l-6.183-6.183a1.585 1.585 0 00-2.241 2.242l8.85 8.85c.166.201.38.358.624.455.062.018.125.034.188.046.11.039.222.066.337.08h.09c.12-.009.24-.032.355-.07.065-.007.13-.02.193-.036.215-.076.41-.198.573-.358l8.97-8.967a1.585 1.585 0 00-2.242-2.242l-6.337 6.332c-1.132-22.724-19.87-40.577-42.622-40.61-.04-.002-.073-.022-.113-.022-.04 0-.073.02-.112.022-23.553.032-42.638 19.117-42.67 42.67 0 .04-.022.073-.022.112 0 .04.02.073.022.113.04 22.971 18.22 41.808 41.175 42.662h.058c.852 0 1.552-.674 1.584-1.525z" fill="#EEBE67"/><mask id="c" fill="#fff"><path d="M73.799 44.03c-1.298-2.642-2.96-5.007-4.943-7.032a26.99 26.99 0 00-6.189-4.722 26.857 26.857 0 00-13.009-3.364c-4.088 0-8.027.907-11.704 2.694l-.003.002c-.567.277-1.126.567-1.672.881a27.076 27.076 0 00-13.546 23.46c0 1.855.19 3.718.567 5.536a26.934 26.934 0 002.375 6.722A27.186 27.186 0 0037.96 80.28a26.608 26.608 0 009.253 2.59c.86.078 1.661.115 2.446.115 4.55 0 9.05-1.162 13.01-3.363a26.937 26.937 0 0011.15-11.754c.008-.014.006-.03.013-.045.01-.017.028-.03.037-.048.041-.076.08-.151.116-.227a26.89 26.89 0 002.6-11.599c0-4.144-.936-8.151-2.782-11.913 0-.002-.002-.003-.003-.005zm-2.652-.023l-.391.183-6.323 2.949a17.296 17.296 0 00-2.284-3.036V44.1a17.33 17.33 0 00-3.185-2.654l3.582-6.52a24.452 24.452 0 018.6 9.08zM56.833 69.005l-.002.001a14.783 14.783 0 01-7.173 1.859c-.653 0-1.344-.057-2.17-.178a14.77 14.77 0 01-4.28-1.32 14.978 14.978 0 01-6.853-6.809l-.002-.001a14.834 14.834 0 01-1.215-3.474 14.9 14.9 0 011.964-11.096 14.972 14.972 0 015.479-5.156v-.002c.102-.055.21-.1.316-.149.106-.047.213-.094.318-.144 4.361-2.12 9.47-1.946 13.61.362a15.043 15.043 0 013.623 2.819 15.043 15.043 0 012.446 3.485 14.727 14.727 0 011.62 6.746c0 2.074-.438 4.11-1.301 6.053-.001.002 0 .004-.002.006 0 .002-.002.003-.003.004l-.064.162a15.072 15.072 0 01-6.311 6.832zm-7.175-37.742c3.76 0 7.482.87 10.838 2.526l-3.58 6.517a17.081 17.081 0 00-7.258-1.625c-2.195 0-4.34.423-6.395 1.262l-3.225-6.708a24.236 24.236 0 019.62-1.972zm-12.214 3.265c.161-.092.322-.183.486-.27l1.52 3.161 1.694 3.524a17.318 17.318 0 00-5.424 4.901l-4.407-2.217-2.257-1.136a24.783 24.783 0 018.388-7.963zm-9.575 9.995l6.606 3.324a17.263 17.263 0 00-.691 14.716l-6.54 3.497a24.202 24.202 0 01-1.651-5.054 24.965 24.965 0 01-.52-5.058c0-3.984.965-7.911 2.796-11.425zm.44 23.632l5.504-2.943 1.018-.545a17.361 17.361 0 006.322 6.269l-3.216 6.689a24.871 24.871 0 01-9.629-9.47zm19.113 12.372a24.15 24.15 0 01-7.378-1.878l2.023-4.207 1.194-2.483c1.25.504 2.553.857 3.887 1.053.942.14 1.74.204 2.51.204a17.14 17.14 0 007.262-1.618l3.578 6.51a24.536 24.536 0 01-10.84 2.526 24.45 24.45 0 01-2.236-.107zm15.126-3.557l-3.58-6.513a17.465 17.465 0 005.821-6.332l3.385 1.942 3.036 1.742a24.573 24.573 0 01-8.662 9.161zm9.7-11.273l-6.493-3.726c.73-1.945 1.1-3.967 1.1-6.023a17.05 17.05 0 00-1.36-6.712l.872-.407 5.818-2.713a24.411 24.411 0 012.058 9.832c0 3.391-.67 6.665-1.994 9.748z"/></mask><path d="M73.799 44.03c-1.298-2.642-2.96-5.007-4.943-7.032a26.99 26.99 0 00-6.189-4.722 26.857 26.857 0 00-13.009-3.364c-4.088 0-8.027.907-11.704 2.694l-.003.002c-.567.277-1.126.567-1.672.881a27.076 27.076 0 00-13.546 23.46c0 1.855.19 3.718.567 5.536a26.934 26.934 0 002.375 6.722A27.186 27.186 0 0037.96 80.28a26.608 26.608 0 009.253 2.59c.86.078 1.661.115 2.446.115 4.55 0 9.05-1.162 13.01-3.363a26.937 26.937 0 0011.15-11.754c.008-.014.006-.03.013-.045.01-.017.028-.03.037-.048.041-.076.08-.151.116-.227a26.89 26.89 0 002.6-11.599c0-4.144-.936-8.151-2.782-11.913 0-.002-.002-.003-.003-.005zm-2.652-.023l-.391.183-6.323 2.949a17.296 17.296 0 00-2.284-3.036V44.1a17.33 17.33 0 00-3.185-2.654l3.582-6.52a24.452 24.452 0 018.6 9.08zM56.833 69.005l-.002.001a14.783 14.783 0 01-7.173 1.859c-.653 0-1.344-.057-2.17-.178a14.77 14.77 0 01-4.28-1.32 14.978 14.978 0 01-6.853-6.809l-.002-.001a14.834 14.834 0 01-1.215-3.474v0a14.9 14.9 0 011.964-11.096 14.972 14.972 0 015.479-5.156v-.002c.102-.055.21-.1.316-.149.106-.047.213-.094.318-.144 0 0 0 0 0 0 4.361-2.12 9.47-1.946 13.61.362a15.043 15.043 0 013.623 2.819 15.043 15.043 0 012.446 3.485 14.727 14.727 0 011.62 6.746c0 2.074-.438 4.11-1.301 6.053-.001.002 0 .004-.002.006 0 .002-.002.003-.003.004l-.064.162a15.072 15.072 0 01-6.311 6.832zm-7.175-37.742c3.76 0 7.482.87 10.838 2.526l-3.58 6.517a17.081 17.081 0 00-7.258-1.625c-2.195 0-4.34.423-6.395 1.262l-3.225-6.708a24.236 24.236 0 019.62-1.972zm-12.214 3.265c.161-.092.322-.183.486-.27l1.52 3.161 1.694 3.524a17.318 17.318 0 00-5.424 4.901l-4.407-2.217-2.257-1.136a24.783 24.783 0 018.388-7.963zm-9.575 9.995l6.606 3.324a17.263 17.263 0 00-.691 14.716l-6.54 3.497a24.202 24.202 0 01-1.651-5.054 24.965 24.965 0 01-.52-5.058c0-3.984.965-7.911 2.796-11.425zm.44 23.632l5.504-2.943 1.018-.545a17.361 17.361 0 006.322 6.269l-3.216 6.689a24.871 24.871 0 01-9.629-9.47zm19.113 12.372a24.15 24.15 0 01-7.378-1.878l2.023-4.207 1.194-2.483c1.25.504 2.553.857 3.887 1.053.942.14 1.74.204 2.51.204a17.14 17.14 0 007.262-1.618l3.578 6.51a24.536 24.536 0 01-10.84 2.526 24.45 24.45 0 01-2.236-.107zm15.126-3.557l-3.58-6.513a17.465 17.465 0 005.821-6.332l3.385 1.942 3.036 1.742a24.573 24.573 0 01-8.662 9.161zm9.7-11.273l-6.493-3.726c.73-1.945 1.1-3.967 1.1-6.023a17.05 17.05 0 00-1.36-6.712l.872-.407 5.818-2.713a24.411 24.411 0 012.058 9.832c0 3.391-.67 6.665-1.994 9.748z" fill="#EEBE67" stroke="#EEBE67" stroke-width="4" mask="url(#c)"/><path d="M39.777 53.662l.952.306c.007-.021.02-.025.023-.026h0l5.695-.84.522-.076.231-.475 2.53-5.2a.164.164 0 01.076 0l2.53 5.2.232.475.522.077 5.695.84h0c.003 0 .016.004.023.024.003.01.003.02 0 .03a.042.042 0 01-.01.02h0l-4.122 4.074-.37.365.087.513.974 5.75h0a.048.048 0 01-.016.046l-.002.001a.015.015 0 01-.009.003.01.01 0 01-.003 0h0l-.004-.002-5.094-2.714-.47-.25-.47.25-5.094 2.714h0l-.005.002s0 0 0 0 0 0 0 0 0 0 0 0h-.003a.016.016 0 01-.009-.003l-.002-.001a.037.037 0 01-.012-.017.053.053 0 01-.003-.029h0l.973-5.75.087-.513-.37-.365-4.121-4.073a.045.045 0 01-.012-.022.054.054 0 01.001-.03l-.952-.304zm0 0c-.12.376-.02.79.26 1.067m-.26-1.067c.12-.378.442-.652.83-.71l5.694-.839 2.547-5.231c.345-.712 1.496-.712 1.842 0l2.546 5.231-13.2 2.616m0 0l4.122 4.073-.973 5.75c-.066.39.092.785.408 1.018.316.234.739.265 1.082.08l5.094-2.715m-9.732-8.206l9.732 8.206m0 0l5.094 2.714a1.007 1.007 0 001.081-.079c.316-.233.475-.628.409-1.018l-.974-5.75-5.61 4.133zm4.48-4.488h0a.05.05 0 01.012-.044s0 0 0 0l3.017-2.98 1.425-1.41-1.982-.291-4.169-.615h-.001c-.003 0-.012-.003-.02-.018h0l-1.864-3.83-.899-1.847-.899 1.847-1.864 3.83h0c-.007.015-.017.018-.019.018h-.001l-4.169.614-1.982.293 1.425 1.408 3.017 2.981s0 0 0 0a.051.051 0 01.012.044h0l-.712 4.21-.34 2.005 1.796-.956 3.729-1.987h0l.004-.002h.006s0 0 0 0h0l.005.002 3.73 1.987 1.795.956-.34-2.006-.712-4.209z" fill="#EEBE67" stroke="#EEBE67" stroke-width="2"/></svg>