<svg width="113" height="113" fill="none" xmlns="http://www.w3.org/2000/svg"><path d="M22.723 24.295a5.28 5.28 0 00-5.273-5.273 5.28 5.28 0 00-5.274 5.273 5.28 5.28 0 005.274 5.273 5.28 5.28 0 005.273-5.273zm-7.533 0a2.262 2.262 0 012.26-2.26 2.262 2.262 0 012.26 2.26 2.262 2.262 0 01-2.26 2.26 2.262 2.262 0 01-2.26-2.26zm65.54 15.82a5.28 5.28 0 005.273-5.273 5.28 5.28 0 00-5.273-5.274 5.28 5.28 0 00-5.274 5.274 5.28 5.28 0 005.273 5.273zm0-7.533a2.262 2.262 0 012.26 2.26 2.262 2.262 0 01-2.26 2.26 2.262 2.262 0 01-2.26-2.26 2.263 2.263 0 012.26-2.26zm5.021-14.19a1.706 1.706 0 10-1.003-3.26 1.706 1.706 0 001.003 3.26zm-60.266-4.52a1.706 1.706 0 10-1.004-3.26 1.706 1.706 0 001.003 3.26zM15.441 72.384a1.706 1.706 0 101.003 3.261 1.706 1.706 0 00-1.003-3.26zM98.68 46.895l1.702-1.703a1.505 1.505 0 10-2.13-2.13l-1.703 1.703-1.702-1.703a1.506 1.506 0 10-2.13 2.13l1.702 1.703-1.703 1.703a1.506 1.506 0 102.131 2.13l1.703-1.703 1.702 1.703a1.502 1.502 0 002.13 0 1.505 1.505 0 000-2.13l-1.702-1.703zM52.036 17.581a1.502 1.502 0 002.13 0l1.703-1.702 1.703 1.702a1.502 1.502 0 002.13 0 1.506 1.506 0 000-2.13L58 13.748l1.702-1.702a1.506 1.506 0 10-2.13-2.13l-1.703 1.702-1.702-1.703a1.506 1.506 0 10-2.13 2.13l1.702 1.703-1.703 1.703a1.506 1.506 0 000 2.13zm-25.48 67.668a1.506 1.506 0 00-2.13 0l-1.703 1.702-1.703-1.702a1.506 1.506 0 10-2.13 2.13l1.702 1.703-1.702 1.702a1.506 1.506 0 102.13 2.13l1.703-1.702 1.702 1.703a1.502 1.502 0 002.13 0 1.506 1.506 0 000-2.13l-1.702-1.703 1.703-1.703a1.506 1.506 0 000-2.13zm45.359-30.314c.074-.838.129-1.68.129-2.537 0-15.911-12.945-28.856-28.856-28.856-15.911 0-28.856 12.945-28.856 28.856 0 15.614 12.475 28.341 27.977 28.811v12.806c0 6.178 12.809 9.511 24.86 9.511 12.052 0 24.86-3.333 24.86-9.511V64.288c0-5.555-9.999-8.67-20.114-9.353zm17.101 29.568c0 2.713-8.311 6.497-21.847 6.497-13.535 0-21.846-3.784-21.846-6.497v-3.357c1.364-.1 2.704-.282 4.01-.566.062.035.11.088.179.115 4.562 1.779 11.075 2.8 17.87 2.8 8.409 0 17.17-1.657 21.634-4.789v5.797zm0-10.519c0 2.713-8.23 6.498-21.635 6.498-4.752 0-9.325-.52-13.097-1.454 3.113-1.302 5.932-3.153 8.381-5.402a67.81 67.81 0 004.716.173c8.41 0 17.17-1.658 21.635-4.79v4.975zm0-9.696c0 2.713-8.23 6.498-21.635 6.498-.65 0-1.295-.02-1.94-.039A28.762 28.762 0 0071.5 57.925c11.426.726 17.516 4.14 17.516 6.363zm-71.67-11.89c0-14.25 11.592-25.843 25.842-25.843 14.25 0 25.843 11.593 25.843 25.843S57.438 78.24 43.188 78.24 17.345 66.648 17.345 52.398zm49.823 48.115c-13.535 0-21.846-3.785-21.846-6.498v-4.81c4.494 3.144 13.348 4.809 21.846 4.809 8.5 0 17.353-1.665 21.847-4.808v4.81c0 2.712-8.311 6.497-21.847 6.497z" fill="#EEBE67"/><path d="M65.138 52.398c0-12.104-9.847-21.95-21.95-21.95s-21.95 9.847-21.95 21.95 9.847 21.95 21.95 21.95 21.95-9.847 21.95-21.95zm-40.886 0c0-10.443 8.495-18.936 18.936-18.936s18.936 8.494 18.936 18.936-8.495 18.936-18.936 18.936-18.936-8.494-18.936-18.936z" fill="#EEBE67"/><path d="M45.452 63.6v-1.519c2.31-.706 4.005-2.833 4.005-5.37a5.793 5.793 0 00-3.238-5.177l-.767-.373v-4.55a1.5 1.5 0 01.991 1.405 1.506 1.506 0 103.014 0c0-2.318-1.758-4.21-4.005-4.472v-1.302a1.506 1.506 0 10-3.014 0v1.276c-2.37.139-4.262 2.093-4.262 4.498a4.752 4.752 0 002.657 4.248l1.606.782v5.891a2.622 2.622 0 01-1.25-2.227v-.646a1.506 1.506 0 10-3.013 0v.646c0 2.633 1.82 4.832 4.263 5.45v1.44a1.506 1.506 0 103.013 0zm.991-6.89c0 .828-.392 1.559-.991 2.04v-4.132c.612.515.991 1.276.991 2.093zm-4.292-7.156a1.719 1.719 0 01-.962-1.538c0-.74.545-1.33 1.249-1.458v3.136l-.288-.14z" fill="#EEBE67"/></svg>