<svg width="70" height="70" fill="none" xmlns="http://www.w3.org/2000/svg"><g clip-path="url(#clip0_64_94)" fill="#EEBE67"><path d="M69.932 20.58c-.164-3.72-.766-6.276-1.627-8.492a17.082 17.082 0 00-4.048-6.208 17.228 17.228 0 00-6.195-4.034C55.834.984 53.29.383 49.57.22 45.823.041 44.634 0 35.13 0S24.436.041 20.703.205c-3.72.164-6.276.766-8.491 1.627A17.08 17.08 0 006.003 5.88a17.235 17.235 0 00-4.034 6.195C1.108 14.304.506 16.847.342 20.566c-.178 3.747-.219 4.937-.219 14.44 0 9.505.041 10.694.205 14.428.164 3.719.766 6.276 1.628 8.492a17.261 17.261 0 004.047 6.208 17.228 17.228 0 006.195 4.034c2.229.861 4.772 1.463 8.492 1.627 3.733.164 4.923.205 14.427.205 9.503 0 10.693-.04 14.426-.205 3.72-.164 6.277-.766 8.492-1.627a17.905 17.905 0 0010.242-10.242c.861-2.23 1.463-4.773 1.627-8.492.164-3.734.206-4.923.206-14.427s-.014-10.694-.178-14.427zm-6.304 28.58c-.15 3.419-.725 5.265-1.203 6.495a11.612 11.612 0 01-6.647 6.646c-1.23.48-3.09 1.053-6.495 1.203-3.692.165-4.8.206-14.14.206s-10.46-.041-14.139-.206c-3.419-.15-5.265-.724-6.495-1.203a10.77 10.77 0 01-4.02-2.612 10.883 10.883 0 01-2.613-4.02c-.478-1.23-1.052-3.09-1.203-6.495-.164-3.692-.205-4.8-.205-14.14s.04-10.46.205-14.14c.15-3.418.725-5.264 1.203-6.495a10.64 10.64 0 012.626-4.02 10.867 10.867 0 014.02-2.612c1.231-.478 3.091-1.053 6.496-1.203 3.692-.164 4.8-.205 14.14-.205 9.353 0 10.46.04 14.139.205 3.419.15 5.265.725 6.495 1.203 1.518.56 2.9 1.45 4.02 2.612a10.88 10.88 0 012.613 4.02c.478 1.231 1.052 3.09 1.203 6.496.164 3.692.205 4.8.205 14.14 0 9.339-.041 10.433-.205 14.125z"/><path d="M35.13 17.025c-9.928 0-17.982 8.054-17.982 17.982 0 9.928 8.055 17.982 17.982 17.982 9.928 0 17.982-8.054 17.982-17.982 0-9.928-8.054-17.982-17.982-17.982zm0 29.646c-6.44 0-11.665-5.223-11.665-11.664S28.69 23.342 35.13 23.342c6.44 0 11.664 5.224 11.664 11.665 0 6.44-5.223 11.664-11.664 11.664zm22.891-30.357a4.198 4.198 0 11-8.397-.001 4.198 4.198 0 018.397 0z"/></g><defs><clipPath id="clip0_64_94"><path fill="#fff" d="M0 0h70v70H0z"/></clipPath></defs></svg>