<svg width="113" height="113" fill="none" xmlns="http://www.w3.org/2000/svg"><path d="M42.187 25.49a5.28 5.28 0 005.273-5.273 5.28 5.28 0 00-5.273-5.273 5.28 5.28 0 00-5.274 5.273 5.28 5.28 0 005.274 5.274zm0-7.533a2.262 2.262 0 012.26 2.26 2.262 2.262 0 01-2.26 2.26 2.262 2.262 0 01-2.26-2.26 2.262 2.262 0 012.26-2.26zM17.26 20.284a1.502 1.502 0 002.13 0l1.703-1.703 1.703 1.703a1.502 1.502 0 002.13 0 1.506 1.506 0 000-2.13l-1.702-1.703 1.702-1.703a1.506 1.506 0 10-2.13-2.13l-1.703 1.702-1.702-1.702a1.506 1.506 0 10-2.13 2.13l1.702 1.703-1.703 1.702a1.506 1.506 0 000 2.13zm52.734 0a1.502 1.502 0 002.13 0l1.703-1.703 1.702 1.703a1.502 1.502 0 002.13 0 1.506 1.506 0 000-2.13l-1.702-1.703 1.703-1.703a1.506 1.506 0 10-2.13-2.13l-1.703 1.702-1.703-1.702a1.506 1.506 0 10-2.13 2.13l1.702 1.703-1.702 1.702a1.506 1.506 0 000 2.13zm17.393 3.146a1.706 1.706 0 100-3.412 1.706 1.706 0 000 3.412zm-72.32 13.56a1.706 1.706 0 100-3.412 1.706 1.706 0 000 3.412zm48.213-6.027a1.706 1.706 0 100-3.412 1.706 1.706 0 000 3.412zm37.705 5.909a1.504 1.504 0 00-1.466-.067c-9.425 4.713-20.709.01-20.82-.038a1.51 1.51 0 00-.504-.118l-24.417-1.436c-.035-.105-.051-.212-.11-.31a10.06 10.06 0 00-8.58-4.86 9.85 9.85 0 00-6.796 2.694 9.86 9.86 0 00-6.796-2.694c-5.515 0-10.002 4.486-10.002 10 0 .07.022.15.026.221-.07-.004-.151-.027-.218-.027-5.514 0-10.002 4.487-10.002 10.002a9.86 9.86 0 002.694 6.796A9.85 9.85 0 0011.3 63.83c0 4.742 3.321 8.715 7.757 9.738-4.698 10.553-1.052 22.301-.889 22.811a1.506 1.506 0 002.87-.92c-.035-.11-3.333-10.777.547-20.156.631 4.911 4.83 8.721 9.91 8.721a9.858 9.858 0 006.797-2.692 9.851 9.851 0 006.796 2.692 9.945 9.945 0 006.56-2.47l-.014.034c-3.44 9.241-3.898 17.31-3.916 17.648a1.506 1.506 0 001.505 1.587h32.281a1.506 1.506 0 001.461-1.872c-4.818-19.28 18.023-40.792 18.254-41.007.306-.285.481-.684.481-1.103v-18.69c0-.522-.271-1.005-.715-1.28zm-76.184 4.32c-.256-.648-.294-.998-.294-1.148 0-3.854 3.135-6.988 6.99-6.988 2.206 0 4.243 1.034 5.587 2.838.57.765 1.85.762 2.416 0 1.343-1.804 3.38-2.838 5.589-2.838 1.837 0 3.54.7 4.822 1.929l-.6-.036a1.512 1.512 0 00-1.581 1.306l-1.15 8.625c-.076.042-.16.063-.229.119-1.878 1.51-5.805 4.988-8.067 8.003-2.88-3.813-8.93-9.302-13.452-11.641-.016-.056-.009-.114-.03-.17zm19.891 21.74c.286.327.699.513 1.133.513h11.893c.571 0 1.092-.322 1.348-.832l1.283-2.565h.812c.016.028.016.06.034.088a6.873 6.873 0 011.075 3.695c0 .237.066.454.163.653-1.874 1.797-3.593 3.844-5.156 6.12-.11.003-.22-.013-.331.016-.54.13-1.1.198-1.664.198-3.399 0-13.51-9.425-15.383-12.67.098-.428.122-.81.06-1.114.061-.3.037-.675-.056-1.095.776-1.331 3.02-3.927 6.092-6.676L44.332 61.74c-.057.43.074.864.36 1.192zm20.431-.788a9.824 9.824 0 00-.608-2.096h3.59a33.349 33.349 0 00-2.982 2.096zm-50.81 1.687c0-2.208 1.035-4.245 2.838-5.588a1.505 1.505 0 000-2.416c-1.803-1.345-2.838-3.381-2.838-5.588a6.997 6.997 0 016.99-6.99c3.397 0 13.497 9.416 15.379 12.666a2.656 2.656 0 00-.101.7c.003.143.017.281.045.415-.063.306-.04.689.06 1.119-1.581 2.738-9.012 9.854-13.345 12.019-.188.048-.36.13-.518.247-.585.251-1.107.404-1.52.404-3.854 0-6.99-3.135-6.99-6.988zm30.775 17.181c-2.21 0-4.246-1.034-5.587-2.837a1.507 1.507 0 00-2.417-.001c-1.343 1.804-3.38 2.838-5.588 2.838-3.854 0-6.99-3.134-6.99-6.988 0-.15.058-.577.385-1.35 4.521-2.358 10.536-7.821 13.4-11.619 2.876 3.814 8.934 9.312 13.462 11.653.015.056.008.113.03.169.255.644.293.996.293 1.147a6.995 6.995 0 01-6.988 6.988zm9.975-7.208c.062.004.134.024.194.025-.056.099-.117.193-.173.293 0-.033.005-.064.005-.098 0-.069-.023-.15-.026-.22zm43.624-17.608c-3.39 3.284-22.29 22.588-19.038 41.614H50.872c.723-6.472 4.722-30.844 24.342-37.85a1.506 1.506 0 00-.506-2.925h-15.29c-.571 0-1.092.322-1.348.833l-1.283 2.564h-9.24L50.53 38.04l27.236 1.602c1.737.693 11.538 4.275 20.92.804v15.75z" fill="#EEBE67"/><path d="M77.654 41.21a1.495 1.495 0 00-.434-.09l-23.983-1.412c-.779-.034-1.478.523-1.582 1.305l-2.16 16.207a1.507 1.507 0 001.494 1.705h3.937a1.51 1.51 0 001.348-.832l1.28-2.56 21.216.083-.982 4.918C62.893 66.38 54.605 84.379 52.86 94.543a1.508 1.508 0 001.485 1.761h21.957a1.506 1.506 0 001.506-1.576C77.007 77.424 92.1 60.712 96.747 56.002a1.51 1.51 0 00.433-1.058V44.402a1.505 1.505 0 00-1.793-1.479c-1.74.339-3.573.51-5.45.51-5.665 0-10.477-1.554-12.283-2.223zm16.513 13.12c-5.146 5.31-19.341 21.541-19.403 38.96H56.19c.955-4.086 3.059-9.83 6.55-15.427 3.213-5.148 8.745-11.894 16.865-14.794a1.5 1.5 0 00.971-1.122l1.507-7.534a1.506 1.506 0 00-1.471-1.802l-23.982-.096h-.006c-.571 0-1.092.322-1.348.833l-1.283 2.565H52.71l1.747-13.114 22.366 1.315c2.104.76 7.173 2.332 13.114 2.332 1.437 0 2.853-.091 4.23-.274v8.158z" fill="#EEBE67"/></svg>