<svg width="70" height="70" fill="none" xmlns="http://www.w3.org/2000/svg"><g clip-path="url(#clip0_64_88)" fill="#EEBE67"><path d="M67.535 40.521c2.089-17.579-1.003-28.677-6.58-33.696l.003-.003c-9-8.572-39.398-9.84-50.166.385-4.836 5.002-6.54 12.343-6.726 21.432-.187 9.091-.409 26.121 15.461 30.741h.015l-.015 7.056s-.108 2.858 1.718 3.433c2.088.676 3.033-.65 9.529-8.409 10.861.942 19.203-1.216 20.151-1.531 2.193-.735 14.604-2.377 16.61-19.408zm-35.69 15.975s-6.875 8.572-9.013 10.797c-.7.724-1.467.657-1.456-.779 0-.941.053-11.713.053-11.713C7.974 50.945 8.767 36.444 8.913 28.857c.146-7.589 1.534-13.804 5.63-17.99 9.447-8.857 36.096-6.877 42.886-.495 8.301 7.358 5.346 28.148 5.364 28.857C61.087 53.445 51.03 54.346 49.18 54.962c-.79.262-8.126 2.15-17.337 1.534z"/><path d="M35.648 12.533c-1.123 0-1.123 1.75 0 1.764 8.712.067 15.887 6.14 15.965 17.279 0 1.175 1.721 1.16 1.707-.015h-.003c-.094-12.002-7.928-18.961-17.67-19.028z"/><path d="M47.107 29.73c-.026 1.16 1.692 1.216 1.706.04.143-6.617-3.937-12.069-11.605-12.643-1.123-.082-1.24 1.683-.12 1.764 6.65.505 10.153 5.043 10.02 10.839zm-1.837 7.528c-1.441-.835-2.908-.316-3.515.504l-1.269 1.642c-.644.834-1.849.723-1.849.723-8.79-2.324-11.142-11.523-11.142-11.523s-.108-1.246.697-1.914l1.587-1.312c.794-.63 1.295-2.147.487-3.637-2.158-3.9-3.608-5.244-4.346-6.277-.775-.971-1.942-1.19-3.155-.534h-.027c-2.523 1.476-5.285 4.238-4.4 7.082 1.507 2.998 4.278 12.556 13.11 19.778 4.15 3.415 10.718 6.915 13.507 7.723l.026.041c2.747.916 5.419-1.954 6.845-4.553v-.02c.633-1.257.423-2.447-.501-3.226-1.64-1.598-4.113-3.363-6.055-4.498z"/><path d="M38.41 23.637c2.803.163 4.162 1.627 4.308 4.634.052 1.176 1.758 1.094 1.706-.082-.187-3.925-2.234-6.113-5.921-6.317-1.123-.067-1.228 1.698-.093 1.765z"/></g><defs><clipPath id="clip0_64_88"><path fill="#fff" d="M0 0h70v70H0z"/></clipPath></defs></svg>